<?xml version="1.0" encoding="UTF-8"?>
<svg version="1.1" viewBox="0 0 1192 1192" width="298" height="298" xmlns="http://www.w3.org/2000/svg">
<path transform="translate(575,25)" d="m0 0h42l32 2 39 5 36 7 31 8 37 12 32 13 29 14 25 13 23 14 22 15 14 10 14 11 16 13 12 11 10 9 29 29 7 8 12 14 13 17 14 19 12 18 17 28 15 29 11 23 13 33 11 33 7 27 6 27 6 39 3 32 1 22v33l-2 33-4 33-4 24-8 36-10 34-10 28-11 26-11 24-9 17-14 24-14 22-13 18-14 18-9 11-9 10-9 11-33 33-8 7-14 12-16 13-11 8-17 12-23 15-26 15-27 14-30 13-29 11-30 9-32 8-31 6-31 4-37 3h-51l-36-3-35-5-26-5-32-8-32-10-26-10-26-11-32-16-27-16-19-12-17-12-21-16-13-11-10-9-8-7-12-11-19-19-7-8-12-14-10-12-10-13-10-14-18-27-14-24-9-16-11-23-12-28-10-28-9-29-8-33-6-32-4-31-2-27v-58l3-37 5-35 9-42 10-34 11-31 12-28 16-33 14-24 11-18 13-19 14-19 18-22 18-20 34-34 8-7 13-11 17-13 16-12 24-16 15-9 16-9 27-14 24-11 28-11 37-12 32-8 32-6 31-4 22-2zm2 41-4 9-4 6-8 9-7 8-8 8-2 5v4l5-1h20l1 1v12l-2 4-6 1-2-7-4 1-5 6-1 3v10l1 2 5-1 5-5 4-3h4l4 13 3 2 5-1-1-11v-14l3-7 2-4-7 1 2-6 7-5 1-4-4-3-4-2h-3l-4 10-9 1h-9l6-9 11-12 8-9 7-3v-4l-6-5zm45 4-6 4-7 8-5-4-4 1 2 5 1 7-5 6 1 5v7l-3 7-7 14-1 5h6l15-8 3-1-1 4v36l-1 8h4l5-18 4-11 1-9 1-10 4-5 6-4-1-5-5-6v-14l1-12-6-9zm252 67-7 6-4 8 1 7 3 2h5l4-5 1-9v-5l1-4zm-563 8-8 6-7 8-7 11-4 12-1 5v15l3 9 6 11 8 11 5 8 5 16v2l-2 1-2-4-10-19-5-10-6-9-5-9-4-3 2 5 18 35 10 17 7 8 3 1 1-1-1-10-6-21 17 8 5 1h11l11-3 12-7 13-9 2-3-1-5-12-17-10-14-8-13-13-19-9-10-7-4zm582 8-3 4-1 3v9l20-1v-2l-9-3-3-3-3-7zm-49 16-4 5-6 9-3 4 1 5 6-2 10-4 8-5 4-1h11l13 4 3 3v11l-3 7-10 3 2 3 9-1 7-8 2-5v-14h14l4 2h6l2-5-1-9-3-1-7 6h-29l-12-2-7-1-5 1-1-5zm-260 19-31 2-23 3-29 6-29 8-20 7-26 11-28 14-26 16-18 13-13 10-14 12-12 11-19 19-7 8-12 14-14 19-13 20-13 22-15 31-9 23-10 31-7 30-5 33-2 26v36l2 26 5 33 6 27 8 26 7 19 10 23 12 24 14 23 8 12 12 16 10 13 9 10 7 8 25 25 11 9 13 11 18 13 19 12 21 12 24 12 25 10 30 10 29 7 31 5 34 3h34l33-3 26-4 30-7 29-9 27-11 25-12 17-9 24-15 16-12 13-10 14-12 13-12 16-16 9-11 8-9 10-13 14-20 9-15 12-21 11-23 9-23 9-27 8-33 5-31 2-21 1-20v-15l-2-33-5-35-6-27-9-30-8-21-9-20-8-16-11-20-20-30-14-18-12-14-16-17-8-8-8-7-10-9-14-11-19-14-24-15-30-16-28-12-36-12-25-6-21-4-22-3-33-2zm265 4-5 2 1 4 8 6 3 7-6 2-6 4 1 9-1 1h-7l-14-9-6-7-3-5-5 2-1 4 10 9 11 7 8 5 1 3-6 5h-7l-8-5-9-9h-2l1 5 7 9 8 6 6 1 12-5 3-3 5 1 8 5 4 2h3l-2-4-7-6-7-2 3-7 3-11 11-6 3-3v-6l-5-6-12-5zm186 136-5 5 1 6 1 5-9 11-1 1h-5l-4-11-1-2h-12l-16 3-18 6-8 16 1 7 2 2 5-1 13-4 12-3 15-10 3-6v-2h2v14l1 2h9l6-4 5-7 3-6 4-2 7-2 1-5-8-12zm-898 30-5 6-4 15-1 5-9-3-2-1h-7l-8 5-4 2-1 2v6l3 3 10-1 16 8 2 2 5 17 4 10v6l-4 2-9-1-6-1-1 2 4 5 9 3 8 1h10l5-3v-7l-4-4-5-3-2-6v-12l15 5h2l-1 6-3 7 4 1 4-2 2-9 15 7 21 5 2-2-13-8-10-8-5-6-7-5-3-7-1-12-4-8-3 1v12l-5-3-4-11-4-18-2-3zm939 9-5 7-6 2 2 4 8 5h4l1-5-2-13zm-43 1-10 7-1 3 4 4h8l16 7 10 6 6 5-1 5-4 2-7-1-14-9-2-2-3-10-2-1-2 7-7 1 5 4 8 7 9 3 12 7h7l6-4 3-4-2-6-7-7-18-12-4-2v-2l10-4v-3l-5-1zm-15 21-8 8-3-1h-8l-9 2 1 4 10 6 11 2 1 3-2 1-13 2-8 8-1 4 9 8 6 15 5 2 2-4 1-5 7-6-1-2h-5l-3 2-4-1-6-9-1-3 4-4 14-4 6-5h5l4 3 5-1-1-4-10-9-5-3-1-5 2-2zm-871 361-15 4-10 5-9 8-4 9v10l5 8 5 4 14 3 2-1-1-3-10-1-6-4-2-4v-8l7-8 14-7 14-4h11l5 5v12l-10 9v3l5-1 7-3h6l-1 5-6 4-17 8-17 9-9 2-2-4h-2l2 6 12 23 9 19 5 5v-8l3-3 27-14 13-6 6-1 1 4v7l-7 6-24 15-5 3h-6l-4-1h-3l2 5 10 16 11 16 4 2v-7l6-7 14-10 5-4 3-1-12 40-2 7v4l4-1 28-21 13-9 4-1 3 4-1 5-13 13-8 7-10 9-5 1h-7l1 4 7 7 7 8 12 13 3 1 14-11v-2l-10 2h-7l-5-3-2-2-1-9 13-11 4 1 3 3-4 10 5-1 7-7 7-5v-3l-11 1-3-2 1-5 8-8 4-3 5 1 5 7v7l-4 8h3l11-9-1-4-7-8-11-12-9-10-8-10h-2v9l-5 5-12 9-5 4-2 1 3-11 9-30v-6l-12-19-11-18-7-12-4-4 1 9-3 3-16 8-3-4-5-10-1-4 6-2 10-5h7l4 4-2-9-8-16-5-5v-7l-2-9-5-7-10-5zm879 15 1 4-7 6-3 6v7l4 6 8 5 6 2 8-1 10-6 8-6 2-1h6l6 5 1 7-3 5-3 3h-18l1 3 7 4 11 3 2-4 2-5 5-6v-12l-7-8-7-4-4-1h-8l-9 5-10 8-8 1-5-5 1-7 1-4 10-1 9 1-1-4-11-5zm-14 32-5 8-15 28-1 9-5 2-7 8-3 6v7l2 7 8 10 13 9 9 4 5 1h7l9-4 7-8 2-4v-7l-4-10-3-4h-2l1 4 3 8v7l-3 5-3 2h-10l-11-4-14-9-7-8-2-4 1-8 5-4 2-1h8l8 2 2-2-5-5-9-4v-6h7l19 9 23 13 1 1 1 8 5-5 12-23 4-7-1-5-10-7h-4l1 4 4 6v9l-4 6-3 1-12-5-6-4 1-6 4-2 7 2-1-4-8-5-9-5-3 1 4 6v7l-2 2-18-9 1-6 3-6 2-1h14v-3l-13-7zm-43 72-6 7-4 5v2l9-1 6 4 17 14 1 2-2-1-33-2h-12l-16 17-23 23-8 6-13 11v2l12 3 8 8 18 22 1 6v6l2 1 11-9 8-7-2-3h-9l-10-11-9-11-8-11-1-6v-4h9l7 4 24 24 2 4v9l2 1 8-7 22-22-1-4-8-11-4-1 1 6 1 3v9l-3 5-2 1-9-1-10-10 1-7h7l3 2h3l-2-4-14-14h-2l1 5v7l-2 3-5-2-9-9-1-7 6-5 5-1 9 4 3-1-3-5-5-4 1-4 6-1 10 9 14 11 11 9 3 9h3l8-11-1-3-4 2-6-1-11-8-13-11h19l32 1 2-2-13-11-14-11-10-9h-2l-2-4-1-1-1-8zm-694 61-8 4-7 8-1 3v12l4 13v7l-5 5-7 1-6-4-1-2v-9l4-9v-3l-4 1v2l-4 2-7 8 1 4 5 4 7 8 5 3h7l7-4 6-5 5-8v-7l-6-20 2-5 5-4 7 2 4 5-2 8-3 5v5l4-1 7-10h2l1 4v7l-9 13-13 16-4 5-10 1v3l17 13 15 12 4-1 7-8 3-3v-3l-4 2-5 2h-10l-4-2-2-3v-6l6-9 5-6 5 2 1 1-1 11 4-1 8-11 4-5v-2l-4 1-4 2-6-1-2-3 8-11 4-5 6 2 5 6-1 15h3l8-11v-4l-12-10-12-9-9-6-5-4h-2l-2-6-5-5-4-2zm608 30v2l-10 3-9 6-5 8v11l4 11 7 10 8 9 10 5h8l12-5 5-7 1-3v-10l-3-6-2-1 1 6v10l-4 6-4 2-9-1-8-6-9-10-6-11-2-5v-10l5-4 2-1 9 1 9 6h3l-1-5-10-11zm-39 26v5h-4v-2l-6 1-6 5-2 4v10l4 7 8 7 3 1 24 1 4 5 1 2v6l-5 5-10 1-5-2-2-4-3-3h-3l1 5 7 11 3 3h2l2-5 10-2 6-5 2-4v-10l-5-10-6-6-8-2h-19l-5-1-1-8 3-6 3-2 6 1 11 8h2l-1-5-8-11zm64 6m-534 8-8 7-10 10-8 7-11 10-6 4-7 2 1 4 12 7h2l-1-7-1-4 2-4 4-2 3-2 5 1 9 5v7l-2 9-8 2 1 3 19 10 2-1-2-6 1-10 9-45v-7zm31 16-9 3-7 6-6 9-5 13-1 3v14l5 9 8 6 4 1h8l9-5 4-4-1-3-7 6-3 1h-10l-5-5-1-3v-10l5-15 6-11 6-7 4-2 6 1 5 5 2 3v14h4l3-7 2-6v-5h-5l-7-7-9-4zm382 0-24 10-8 3 1 3 6 3 7 15 10 26 1 6-2 5 3 1 19-8 1-3-9-1-3-9-4-10v-4l7-1 3 1 3 5h2l-1-6-7-16-4 1 1 8-6 2-4-4-4-11v-5l3-2 9-1 5 3 6 5 2-2-7-14zm-56 20-10 4-8 9-2 5-1 10 2 12 7 14 7 7 9 4h8l10-4 5-4 6-10 1-12-3-13-6-11-5-5-5-4-7-2zm-278-4-5 5-15 20-8 11-8 10-8 6 3 3 13 4-2-5-2-4 6-10 2-2 6 1 10 4-1 17h-6l-2 2 12 5 22 6 21 4h10l6-3 7-7 4-9 3-15v-11l-3-7-6-7-11-4-26-5v3l4 2v8l-6 31-4 14h-10l-1-2v-61l-4-4zm219 19-10 1v3l7 2-5 19-2 7-4-4-9-15-1-4 4-5v-1l-16 1-21 2-11 37-3 8-5-14-8-26-2-5-53-5h-8l1 4 4 2v10l-4 35-1 8-6 2v2l36 4h6l2-6 2-12h-3l-6 9-4 2h-8l-4-2-1-3v-8l2-11h7l4 9h2l3-24-4 1-3 6-2 1h-6v-9l2-13 11 1 3 1 5 13h3l1-6v-8l5 1 1 44-1 8-7 5 3 2h15l-1-4-4-2-1-5v-20l-1-19 4 9 14 41h6l5-15 9-33 1 2 1 19v20l-1 2-5 3v2h23l-1-3-4-3-1-5-1-46 1-2 5 1 7 9 11 18 2 6 1 13-2 5-2 2v3l20-2 5-1-1-2-6-3-2-13v-8l4-15 6-17 4-4v-2z" fill="#164B9A"/>
<path transform="translate(655,224)" d="m0 0 4 1 13 23 32 58 11 20-1 7-21 62-10 28-1 2 12-3 119-23 37-7 6 1 13 10 48 36 19 14 11 9v5l-8 13-10 17-36 60-6 8-45 9-51 10h-4l1 3 5 5 12 13 9 11 9 10 7 8 24 28 9 10 9 11 11 12 9 11 8 9v10l-6 51-6 49-1 8-1 1h-62l-56-1-12-13-7-8-24-28-9-10-9-11-5-6h-2l-38 110-15 43-4 10-37 16-54 23-17 7-3-1-10-19-13-23-16-29-10-18-7-13 1-5 12-34 16-47 4-12-12 3-151 29-9 1-21-16-19-14-21-16-32-24 1-5 24-40 13-22 15-25 6-9 5-3 55-11 37-7h4l-8-11-11-12-9-11-10-11-9-11-11-12-9-11-11-12-9-11-11-12-9-11-6-7 2-20 11-91 1-7h45l60 1 15 1 9 10 9 11 11 12 9 11 10 11 7 8 9 11v2h3l3-10 18-52 16-47 16-46 4-9 15-7 78-33zm-82 219-10 4-7 8-2 6v10l4 8 8 7 6 2h8l10-5 6-7 2-5v-11l-4-8-8-7-7-2zm120 48-8 4-7 8-2 5v10l5 10 8 6 10 2 10-3 7-6 4-7v-13l-6-10-10-6zm-76 25-33 14-34 14-4 1-4-8-3-2-1 1-9 72-1 4h-12l-1 3 11 8 18 14 11 8 13 10 8 6-1 5-4 8 6-1 28-12 36-15h5l4 8 3 1 5-36 5-42h13l-2-4-14-10-18-14-12-9-15-11 2-6 3-5v-2zm-148 9-8 4-7 8-2 5v11l5 9 5 5 9 3 10-1 9-6 4-5 2-5v-11l-4-8-8-7-6-2zm247 95-9 3-8 7-3 7v11l5 10 7 5 6 2h8l10-5 6-8 2-4v-11l-4-8-7-6-10-3zm-229 35-8 5-5 6-3 8 1 10 6 9 8 5 3 1h9l10-5 5-6 3-7v-8l-3-7-7-8-6-3zm125 47-8 3-6 5-4 8-1 9 3 9 5 6 8 4 3 1h7l9-4 5-4 4-7 1-4v-8l-5-10-7-6-6-2z" fill="#154B9A"/>
<path transform="translate(549)" d="m0 0h93l46 6 32 6 34 8 29 9 28 10 31 13 31 15 23 13 23 14 19 13 11 8 16 12 13 11 11 9 17 16 32 32 7 8 12 14 11 14 14 19 18 27 12 20 16 29 15 32 13 33 12 36 9 35 7 36 4 29 3 32 1 26v20l-2 39-4 34-7 41-7 29-7 25-12 35-13 31-14 29-13 24-14 23-16 24-7 9-10 13-8 10-11 13-9 11-10 10-7 8-11 11-8 7-7 7-11 9-14 12-17 13-15 11-24 16-15 9-23 13-34 17-31 13-28 10-33 10-34 8-35 6-34 4-30 2h-39l-32-2-35-4-35-6-30-7-29-8-29-10-32-13-33-16-21-11-20-12-30-20-19-14-16-13-14-12-10-9-8-7-27-27-9-11-11-12-11-14-13-17-12-17-11-17-12-20-12-22-14-28-13-31-10-28-10-33-8-34-6-34-4-33-2-17v-73l6-50 4-24 6-29 8-30 12-36 12-31 12-26 10-19 10-18 14-23 13-19 14-19 11-14 9-11 11-12 7-8 14-15 11-11h2v-2l8-7 12-11 11-9 12-10 19-14 17-12 19-12 17-10 18-10 15-8 29-13 31-12 33-11 31-8 34-7 39-6zm31 10-35 2-42 5-36 7-32 8-40 13-30 12-28 13-25 13-25 15-17 11-17 12-12 9-14 11-15 13-8 7-10 9-27 27-7 8-10 11-11 14-12 15-12 17-17 26-9 15-10 18-16 32-9 21-10 26-11 34-10 40-5 27-4 29-3 37v54l3 38 4 31 8 40 9 33 11 33 12 30 14 30 12 23 15 25 14 21 12 17 10 13 9 11 12 14 18 20 23 23 8 7 10 9 11 9 16 13 18 13 21 14 25 15 18 10 19 10 29 13 29 11 34 11 32 8 31 6 28 4 32 3 20 1h37l43-3 42-6 41-9 31-9 32-11 31-13 29-14 22-12 20-12 24-16 19-14 14-11 13-11 10-9 8-7 13-12 13-13 7-8 11-12 9-11 14-17 10-14 15-22 11-17 13-23 12-23 14-31 13-34 11-36 8-32 7-39 4-35 2-32v-35l-3-42-4-30-5-28-7-30-9-31-11-31-15-35-12-25-13-23-10-17-14-21-13-18-10-13-14-17-9-10-7-8-10-10-7-8-12-11-8-8-8-7-14-12-13-10-16-12-20-14-26-16-25-14-26-13-28-12-36-13-28-8-28-7-33-6-30-4-23-2-21-1z" fill="#1A4F9C"/>
<path transform="translate(572,203)" d="m0 0h48l37 4 26 5 27 7 26 9 26 11 20 10 27 16 20 14 14 11 15 13 12 11 17 17 9 11 11 13 13 18 12 19 14 25 10 21 10 26 8 25 7 30 4 25 2 19 1 19v24l-2 32-5 33-7 30-7 23-10 25-9 20-11 21-13 21-13 18-13 16-11 13-12 13-10 10-8 7-14 12-17 13-24 16-21 12-16 8-19 9-28 10-23 7-28 6-27 4-24 2h-44l-36-4-31-6-26-7-28-10-27-12-25-13-22-14-14-10-18-14-15-13-28-28-20-25-12-17-12-19-10-18-8-16-10-23-12-36-7-28-5-31-2-25v-49l3-29 5-29 5-20 8-26 11-28 8-17 12-22 10-16 8-12 12-16 9-11 12-14 26-26 8-7 16-13 18-13 24-15 24-13 27-12 28-10 25-7 32-6 24-3zm8 11-27 2-27 4-34 8-33 11-32 14-22 12-24 15-17 13-10 8-13 11-32 32-9 11-13 17-9 13-11 18-10 18-12 25-9 24-8 25-6 25-4 24-3 30v44l4 35 5 26 8 30 9 25 10 23 10 20 10 17 14 21 9 12 9 11 12 14 9 9 1 2h2l2 4 8 7 13 12 14 11 19 14 21 13 22 12 21 10 27 10 23 7 21 5 24 4 27 3 16 1h25l35-3 29-5 28-7 27-9 26-11 16-8 17-9 22-14 19-14 13-11 8-7 10-9 16-16 7-8 11-13 15-20 14-22 13-23 11-24 10-27 8-27 7-33 4-33 1-19v-19l-2-29-4-28-5-24-9-31-8-21-13-29-11-20-12-19-12-17-11-14-10-11-7-8-22-22-8-7-14-11-16-12-17-11-17-10-21-11-21-9-25-9-25-7-33-7-27-3-18-1z" fill="#1B4F9C"/>
<path transform="translate(591,556)" d="m0 0h10l11 3 8 5 5 4 6 9 4 13v11l-4 12-6 9-9 7-10 4-4 1h-12l-13-4-9-7-5-6-4-8-2-7v-15l4-11 6-8 8-7 11-4z" fill="#164C9A"/>
<path transform="translate(314,150)" d="m0 0 8 3 12 9 8 9 11 18 10 17 8 11 2 4-1 5-15 13-10 5-4 1h-8l-2-1 1-5 7-6 6-5 1-5-7-14v-6l5-8 1-3h-8l-2 1-3 6v6l1 2-3 9h-5l-1-2 1-3v-8l-3-5-12-10-2-4-10 2-8-2-1-4 3-9 8-13 8-7zm3 25-1 5 5 5 5-1 2-5-4-3z" fill="#1A4F9C"/>
<path transform="translate(730,1040)" d="m0 0 8 1 5 5 5 8 5 15 1 5v15l-3 5-5 2h-8l-6-5-6-12-5-16v-16l4-5z" fill="#184D9B"/>
<path transform="translate(494,1049)" d="m0 0 8 2 6 4 2 6v14l-4 16-5 10-6 4-11-1-2-2 1-10 9-41z" fill="#194E9B"/>
<path transform="translate(192,831)" d="m0 0h6l2 4v7l-8 7-24 15-5 3h-6l-4-1-5-2v-9l4-4 27-14z" fill="#1C509D"/>
<path transform="translate(206,853)" d="m0 0 5 1 4 8-14 11-19 14-7 4-6 1-4-5-1-6 4-5 19-12 15-9z" fill="#194E9C"/>
<path transform="translate(289,187)" d="m0 0 2 1 3 9 6 4 3 4-1 8 6 4 2 3 3-2 5 2-2 3h-7l1 4 3 3 7 1 2-7 4-4 4 1-2 22-3 1-12-6-10-8-7-8-5-8-1-14-1-2z" fill="#21549F"/>
<path transform="translate(153,815)" d="m0 0 5 1 7 14-1 3-17 9-6 1-6-7-2-9 4-4z" fill="#194E9B"/>
<path transform="translate(177,803)" d="m0 0h7l3 3v2l2 1 1 9-4 4-16 8-3-3-6-12v-4z" fill="#194E9B"/>
<path transform="translate(1034,382)" d="m0 0 5 1 16 8 9 6 3 3-1 5-5 3-7-1-14-9-3-3-3-10z" fill="#1C509D"/>
<path transform="translate(610,88)" d="m0 0 5 1v15l-4 15-10 5-2-2 7-11 4-4h2l-4-8v-8z" fill="#2C5CA3"/>
<path transform="translate(365,1011)" d="m0 0h3l-4 22-3 1-10-6 1-4 9-9z" fill="#2356A0"/>
<path transform="translate(446,1044)" d="m0 0h1v19l-2 6-11-3-2-1 2-4z" fill="#21549F"/>
<path transform="translate(133,375)" d="m0 0 4 1 4 6 3 8v3l-6-1-6-5v-10z" fill="#1D519D"/>
<path transform="translate(610,88)" d="m0 0 5 1v15l-1 3h-2l-4-8v-8z" fill="#3664A8"/>
<path transform="translate(336,216)" d="m0 0 4 1 1 2v7l-3 5h-4l-1-3z" fill="#2859A2"/>
<path transform="translate(317,202)" d="m0 0 5 1 1 2v7l-3 1-4-2z" fill="#3261A6"/>
<path transform="translate(312,218)" d="m0 0 6 2-2 3-7-1z" fill="#3664A8"/>
<path transform="translate(313,192)" d="m0 0 2 4-4 2-1-4z" fill="#2C5CA3"/>
</svg>
